<?xml version="1.0" encoding="UTF-8"?>
<svg width="32" height="32" viewBox="0 0 32 32" fill="none" xmlns="http://www.w3.org/2000/svg">
  <!-- Background -->
  <rect width="32" height="32" rx="8" fill="url(#gradient)" />
  
  <!-- Document Icon -->
  <path d="M10 8C10 7.44772 10.4477 7 11 7H21C21.5523 7 22 7.44772 22 8V24C22 24.5523 21.5523 25 21 25H11C10.4477 25 10 24.5523 10 24V8Z" fill="white" fill-opacity="0.95"/>
  
  <!-- Lines representing text -->
  <rect x="12" y="11" width="6" height="1.5" rx="0.75" fill="#2563EB" fill-opacity="0.9"/>
  <rect x="12" y="14" width="8" height="1.5" rx="0.75" fill="#2563EB" fill-opacity="0.7"/>
  <rect x="12" y="17" width="4" height="1.5" rx="0.75" fill="#2563EB" fill-opacity="0.5"/>
  
  <!-- Dollar sign -->
  <path d="M17.5 20.5V19.5M17.5 19.5V18.5M17.5 19.5H16.5C15.9477 19.5 15.5 19.0523 15.5 18.5C15.5 17.9477 15.9477 17.5 16.5 17.5H17.5C18.0523 17.5 18.5 17.0523 18.5 16.5C18.5 15.9477 18.0523 15.5 17.5 15.5H16.5M17.5 14.5V15.5M17.5 15.5V16.5" stroke="#2563EB" stroke-width="1.5" stroke-linecap="round" stroke-linejoin="round"/>
  
  <!-- Gradient Definition -->
  <defs>
    <linearGradient id="gradient" x1="0" y1="0" x2="32" y2="32" gradientUnits="userSpaceOnUse">
      <stop offset="0%" stop-color="#3B82F6"/>
      <stop offset="100%" stop-color="#2563EB"/>
    </linearGradient>
  </defs>
</svg> 